<svg width="175" height="80" viewBox="0 0 175 80" fill="none" xmlns="http://www.w3.org/2000/svg">
<path d="M86.2592 27.9053C86.131 27.9053 85.9281 27.9531 84.9051 28.5317C84.1916 28.91 83.3919 29.096 82.5846 29.0716C80.0076 29.0716 78.7519 27.8785 78.7519 25.397V22.0564C78.7519 20.8634 79.0741 19.9686 79.7064 19.3303C80.3387 18.692 81.2961 18.3818 82.5518 18.3818C83.3431 18.3655 84.1252 18.5546 84.8216 18.9306C85.9132 19.5271 86.0146 19.5271 86.125 19.5271C86.3341 19.5232 86.5392 19.4694 86.7233 19.3704C86.9075 19.2713 87.0653 19.1297 87.1838 18.9575C87.4433 18.6462 87.5895 18.2561 87.5984 17.8509C87.5984 17.1649 87.0794 16.5624 86.0087 16.0076C84.8729 15.4627 83.6231 15.1978 82.3639 15.2351C80.0911 15.2351 78.3403 15.8764 77.1562 17.144C75.9721 18.4116 75.3816 20.0551 75.3816 22.0504V25.4089C75.3816 27.4281 75.9781 29.0835 77.1712 30.3332C78.3642 31.5829 80.115 32.2242 82.4086 32.2242C83.7067 32.2635 84.9951 31.9882 86.1638 31.4219C87.2673 30.8462 87.8042 30.2288 87.8042 29.5458C87.7952 29.1432 87.6466 28.7562 87.3837 28.4512C87.252 28.2785 87.0817 28.1392 86.8864 28.0444C86.6911 27.9496 86.4763 27.902 86.2592 27.9053Z" fill="#EA5B2D"/>
<path d="M98.2852 15.2413C97.381 15.234 96.4846 15.4087 95.6493 15.7551C94.8141 16.1015 94.0571 16.6125 93.4235 17.2576C92.7743 17.8625 92.2568 18.5948 91.9032 19.4087C91.5496 20.2226 91.3676 21.1006 91.3685 21.988V25.415C91.3688 26.3098 91.5526 27.1949 91.9086 28.0158C92.2647 28.8366 92.7853 29.5757 93.4384 30.1872C94.0689 30.838 94.824 31.3551 95.6586 31.7077C96.4933 32.0603 97.3904 32.2411 98.2964 32.2395C99.2025 32.2378 100.099 32.0536 100.932 31.698C101.766 31.3423 102.519 30.8224 103.147 30.1694C104.531 28.7973 105.235 27.1867 105.235 25.424V21.988C105.237 21.0948 105.052 20.211 104.692 19.3933C104.333 18.5756 103.806 17.8421 103.147 17.2397C102.509 16.602 101.75 16.0971 100.916 15.7541C100.082 15.4111 99.1874 15.2368 98.2852 15.2413ZM94.7537 21.9999C94.7544 21.5351 94.8469 21.0749 95.0261 20.646C95.2052 20.217 95.4675 19.8277 95.7977 19.5005C96.1079 19.1473 96.4908 18.8653 96.9201 18.6738C97.3495 18.4823 97.8151 18.3858 98.2852 18.391C98.7573 18.3866 99.2249 18.4833 99.6565 18.6747C100.088 18.8661 100.474 19.1477 100.788 19.5005C101.122 19.8256 101.388 20.2141 101.57 20.6433C101.753 21.0725 101.847 21.5337 101.849 21.9999V25.4061C101.847 26.3633 101.465 27.2805 100.788 27.9562C100.476 28.3084 100.094 28.5907 99.6659 28.7844C99.2378 28.9782 98.7734 29.0791 98.3034 29.0806C97.8335 29.082 97.3685 28.9838 96.9392 28.7926C96.5099 28.6014 96.1259 28.3214 95.8126 27.9712C95.4742 27.6356 95.2063 27.2359 95.0245 26.7954C94.8426 26.355 94.7506 25.8826 94.7537 25.4061V21.9999Z" fill="#EA5B2D"/>
<path d="M118.674 15.2412H117.532C116.534 15.234 115.56 15.5385 114.743 16.1121C114.249 16.4501 113.806 16.8592 113.431 17.3261V16.7295C113.433 16.5423 113.389 16.3575 113.304 16.1908C113.219 16.024 113.095 15.8804 112.942 15.7721C112.625 15.5479 112.244 15.4328 111.856 15.444C111.445 15.4288 111.04 15.5413 110.696 15.7662C110.537 15.868 110.407 16.0084 110.317 16.1743C110.227 16.3402 110.181 16.5261 110.183 16.7146V30.6554C110.187 30.8431 110.236 31.0271 110.327 31.1913C110.418 31.3555 110.548 31.4951 110.705 31.5979C111.038 31.8438 111.443 31.9718 111.856 31.9618C112.278 31.9695 112.691 31.8362 113.028 31.583C113.185 31.4833 113.316 31.3472 113.41 31.1862C113.503 31.0253 113.556 30.8443 113.565 30.6584V23.0169C113.514 21.7889 113.942 20.589 114.758 19.6704C115.1 19.2694 115.525 18.9473 116.003 18.7264C116.482 18.5055 117.002 18.391 117.529 18.3909H118.674C118.864 18.3904 119.051 18.3469 119.222 18.2637C119.392 18.1806 119.542 18.0598 119.659 17.9107C119.913 17.6134 120.051 17.234 120.046 16.8429C120.05 16.4447 119.912 16.0581 119.659 15.7512C119.545 15.5959 119.397 15.469 119.227 15.3805C119.056 15.292 118.867 15.2443 118.674 15.2412Z" fill="#EA5B2D"/>
<path d="M129.71 15.2413C128.806 15.2342 127.91 15.409 127.076 15.7554C126.241 16.1018 125.485 16.6127 124.851 17.2576C124.202 17.8625 123.685 18.5948 123.331 19.4087C122.978 20.2226 122.796 21.1006 122.796 21.988V25.415C122.797 26.3098 122.981 27.1949 123.337 28.0158C123.693 28.8366 124.213 29.5757 124.866 30.1872C125.497 30.838 126.252 31.3551 127.087 31.7077C127.921 32.0603 128.818 32.2411 129.724 32.2394C130.63 32.2378 131.527 32.0536 132.36 31.6979C133.194 31.3423 133.947 30.8224 134.575 30.1693C135.959 28.7973 136.663 27.1867 136.663 25.424V21.988C136.665 21.0948 136.48 20.211 136.12 19.3933C135.761 18.5756 135.234 17.8421 134.575 17.2397C133.936 16.6012 133.178 16.0958 132.343 15.7528C131.508 15.4098 130.613 15.2359 129.71 15.2413ZM126.182 21.9999C126.182 21.5351 126.275 21.0749 126.454 20.646C126.633 20.217 126.895 19.8277 127.226 19.5005C127.535 19.1475 127.918 18.8656 128.347 18.6741C128.775 18.4826 129.241 18.386 129.71 18.391C130.183 18.3865 130.651 18.4833 131.083 18.6746C131.515 18.866 131.901 19.1476 132.216 19.5005C132.549 19.8262 132.814 20.2148 132.996 20.6439C133.178 21.073 133.272 21.5339 133.274 21.9999V25.4061C133.273 26.3629 132.893 27.2802 132.216 27.9562C131.904 28.3084 131.522 28.5906 131.094 28.7844C130.666 28.9782 130.201 29.0791 129.731 29.0805C129.261 29.0819 128.796 28.9838 128.367 28.7926C127.938 28.6014 127.554 28.3214 127.24 27.9711C126.902 27.6356 126.634 27.2359 126.452 26.7954C126.271 26.3549 126.179 25.8826 126.182 25.4061V21.9999Z" fill="#EA5B2D"/>
<path d="M149.07 15.2412C148.038 15.2216 147.022 15.4979 146.141 16.0376C145.662 16.332 145.232 16.7004 144.868 17.1292V16.7295C144.866 16.5439 144.819 16.3616 144.73 16.1984C144.642 16.0352 144.515 15.896 144.361 15.793C144.054 15.5611 143.678 15.4383 143.293 15.444C142.882 15.4288 142.477 15.5413 142.133 15.7662C141.974 15.8678 141.843 16.0082 141.753 16.174C141.663 16.3398 141.616 16.5258 141.617 16.7146V30.6554C141.621 30.8431 141.67 31.0271 141.761 31.1913C141.852 31.3555 141.982 31.4951 142.139 31.5979C142.473 31.8434 142.879 31.9714 143.293 31.9618C143.707 31.9631 144.111 31.8314 144.444 31.586C144.605 31.4882 144.74 31.3526 144.838 31.191C144.935 31.0294 144.991 30.8467 145.002 30.6584V22.0088C144.981 21.5258 145.06 21.0437 145.236 20.5933C145.412 20.1429 145.679 19.7341 146.022 19.393C146.324 19.0744 146.687 18.8209 147.09 18.648C147.494 18.4752 147.928 18.3866 148.366 18.3879C148.834 18.3868 149.296 18.4855 149.721 18.6774C150.147 18.8692 150.527 19.1498 150.836 19.5004C151.17 19.8277 151.435 20.218 151.617 20.6485C151.798 21.0791 151.893 21.5414 151.895 22.0088V30.6584C151.893 30.8575 151.943 31.0537 152.041 31.227C152.139 31.4004 152.281 31.5448 152.453 31.6457C152.787 31.8568 153.176 31.9666 153.571 31.9618C153.977 31.9707 154.378 31.8609 154.722 31.6457C154.895 31.5445 155.037 31.3997 155.135 31.2257C155.233 31.0518 155.283 30.855 155.28 30.6554V21.9879C155.308 20.2236 154.647 18.5179 153.437 17.2336C152.893 16.6093 152.222 16.1086 151.469 15.7649C150.716 15.4213 149.898 15.2427 149.07 15.2412Z" fill="#EA5B2D"/>
<path d="M170.87 17.2129C169.776 15.9035 168.064 15.2414 165.8 15.2414C164.657 15.2327 163.523 15.4349 162.453 15.8379C161.296 16.2823 160.732 16.8192 160.732 17.4753C160.735 17.871 160.85 18.2579 161.063 18.5908C161.163 18.771 161.309 18.9212 161.486 19.0261C161.664 19.1309 161.866 19.1866 162.072 19.1874C162.161 19.1874 162.239 19.1874 163.375 18.6565C164.117 18.3266 164.923 18.1647 165.734 18.1822C166.877 18.1822 167.703 18.5491 168.264 19.3126C168.847 20.1148 169.152 21.0859 169.131 22.0775V22.51H167.816C165.227 22.51 163.214 22.8679 161.851 23.5748C160.404 24.3145 159.674 25.6418 159.674 27.5149C159.674 29.039 160.13 30.2231 161.031 31.0344C161.997 31.8558 163.238 32.2819 164.505 32.2274C166.232 32.2274 167.837 31.5175 169.278 30.1127V30.6794C169.277 30.864 169.321 31.046 169.406 31.21C169.49 31.374 169.613 31.5153 169.764 31.6219C170.079 31.8507 170.46 31.9692 170.849 31.959C171.267 31.9746 171.677 31.853 172.019 31.613C172.175 31.5062 172.303 31.363 172.391 31.1956C172.48 31.0282 172.526 30.8418 172.526 30.6526V22.0567C172.511 20.1239 171.962 18.5043 170.87 17.2129ZM163.321 26.1458C163.492 25.8654 163.728 25.6309 164.01 25.4628C164.367 25.2634 164.756 25.1262 165.159 25.0572C165.628 24.9597 166.103 24.8929 166.581 24.8573C167.05 24.8245 167.607 24.8066 168.24 24.8066H169.12V26.2771C169.12 26.978 168.708 27.6849 167.897 28.3828C167.206 29.0351 166.302 29.4145 165.352 29.4506C164.74 29.4863 164.138 29.2819 163.673 28.8809C163.265 28.5051 163.077 27.9563 163.077 27.1957C163.063 26.8291 163.151 26.4658 163.33 26.1458H163.321Z" fill="#EA5B2D"/>
<path d="M89.382 40.877H75.7246C75.5323 40.8724 75.3418 40.9158 75.1705 41.0033C74.9992 41.0908 74.8523 41.2196 74.7433 41.3781C74.5274 41.6819 74.4136 42.0464 74.4182 42.4191C74.4071 42.813 74.5209 43.2003 74.7433 43.5256C74.8523 43.6841 74.9992 43.8129 75.1705 43.9004C75.3418 43.9879 75.5323 44.0313 75.7246 44.0267H80.8547V64.7202C80.8526 64.9196 80.903 65.1162 81.0009 65.29C81.0988 65.4638 81.2407 65.6088 81.4125 65.7104C81.7602 65.9191 82.1582 66.0294 82.5637 66.0294C82.9693 66.0294 83.3673 65.9191 83.715 65.7104C83.8872 65.6093 84.0294 65.4644 84.1274 65.2905C84.2254 65.1165 84.2755 64.9198 84.2728 64.7202V44.0267H89.382C89.5774 44.0306 89.7705 43.9848 89.9432 43.8934C90.1159 43.8021 90.2625 43.6684 90.3693 43.5047C90.5836 43.1838 90.695 42.805 90.6884 42.4191C90.6938 42.0463 90.5799 41.6816 90.3633 41.3781C90.2543 41.2196 90.1075 41.0908 89.9361 41.0033C89.7648 40.9158 89.5744 40.8724 89.382 40.877Z" fill="#26B3C1"/>
<path d="M105.986 54.6506C109.208 53.8602 110.842 51.5874 110.842 47.895C110.842 45.4104 110.114 43.597 108.677 42.4994C107.239 41.4018 105.396 40.8768 103.087 40.8768H96.9162C96.5826 40.8965 96.2663 41.0314 96.0214 41.2586C95.899 41.3728 95.802 41.5115 95.7368 41.6657C95.6715 41.8199 95.6394 41.986 95.6426 42.1534V64.7259C95.6404 64.9254 95.6909 65.1219 95.7888 65.2958C95.8867 65.4696 96.0286 65.6146 96.2003 65.7161C96.5487 65.923 96.9464 66.0322 97.3516 66.0322C97.7568 66.0322 98.1545 65.923 98.5029 65.7161C98.6748 65.6148 98.8169 65.4699 98.9149 65.296C99.0128 65.1221 99.0631 64.9255 99.0607 64.7259V55.1457H102.443L107.433 64.8243C107.868 65.6684 108.384 66.0949 108.975 66.0949C109.468 66.0872 109.942 65.9007 110.308 65.57C110.5 65.4286 110.658 65.2457 110.769 65.0351C110.881 64.8244 110.943 64.5913 110.952 64.3531C110.948 64.143 110.889 63.9375 110.782 63.7566L105.986 54.6506ZM107.424 48.0888C107.424 50.8507 106.004 52.1899 103.087 52.1899H99.0517V44.0265H103.087C106.004 44.0265 107.424 45.3567 107.424 48.0948V48.0888Z" fill="#26B3C1"/>
<path d="M132.609 64.3739V64.3291L125.698 41.8759C125.531 41.3271 125.051 40.6829 123.7 40.6829C122.349 40.6829 121.866 41.3301 121.702 41.8759L114.842 64.1979C114.795 64.3142 114.767 64.4369 114.758 64.5618C114.763 64.7891 114.83 65.0109 114.95 65.2035C115.071 65.3962 115.242 65.5527 115.444 65.6564C115.831 65.9034 116.28 66.0358 116.739 66.0382C117.604 66.0382 117.932 65.5669 118.048 65.1702L119.459 60.4279H127.9L129.316 65.2001C129.439 65.5848 129.761 66.0441 130.608 66.0441C131.087 66.044 131.555 65.9075 131.959 65.6504C132.156 65.5536 132.325 65.4063 132.447 65.2235C132.569 65.0407 132.64 64.8289 132.654 64.6095C132.652 64.55 132.643 64.491 132.627 64.4335C132.615 64.4158 132.609 64.3951 132.609 64.3739ZM127.026 57.4691H120.321L123.679 46.1649L127.026 57.4691Z" fill="#26B3C1"/>
<path d="M145.074 44.0266C147.686 44.0266 149.017 45.1988 149.142 47.6057C149.181 48.1784 149.509 48.8584 150.851 48.8584C151.314 48.8952 151.772 48.7508 152.131 48.4558C152.429 48.1814 152.56 47.7101 152.56 47.0152C152.572 46.1693 152.389 45.3321 152.028 44.5675C151.666 43.8029 151.134 43.1312 150.472 42.6039C149.1 41.4556 147.263 40.871 145.005 40.871C142.792 40.871 140.967 41.4973 139.586 42.7262C138.205 43.955 137.498 45.9086 137.498 48.4916V58.5997C137.498 61.1856 138.205 63.1243 139.586 64.3651C140.967 65.6059 142.78 66.2203 144.972 66.2203C147.23 66.2203 149.073 65.6238 150.457 64.4546C151.123 63.9162 151.658 63.2339 152.022 62.459C152.386 61.6841 152.57 60.8368 152.56 59.9807C152.56 59.2857 152.42 58.8115 152.137 58.5251C151.961 58.373 151.757 58.2573 151.536 58.1846C151.316 58.1119 151.083 58.0837 150.851 58.1016C149.545 58.1016 149.202 58.7787 149.145 59.3394C149.097 59.7782 149.021 60.2135 148.918 60.6428C148.793 61.0419 148.617 61.4229 148.393 61.7762C148.125 62.2116 147.72 62.546 147.242 62.7277C146.582 62.9776 145.88 63.0952 145.175 63.0736C142.3 63.0736 140.904 61.6122 140.904 58.5997V48.4886C140.904 45.4761 142.267 44.0266 145.074 44.0266Z" fill="#26B3C1"/>
<path d="M173.972 63.7179L166.098 51.8053L172.806 43.4211C173.001 43.2006 173.107 42.9159 173.104 42.6218C173.091 42.3884 173.028 42.1607 172.917 41.9546C172.807 41.7485 172.653 41.569 172.466 41.4287C172.123 41.0966 171.67 40.9023 171.193 40.8829C170.985 40.8755 170.778 40.9189 170.591 41.0093C170.404 41.0998 170.242 41.2345 170.119 41.4019L161.651 52.3988V42.1505C161.655 41.9513 161.604 41.755 161.504 41.5826C161.404 41.4102 161.259 41.2683 161.084 41.1722C160.734 40.9785 160.341 40.8768 159.941 40.8768C159.54 40.8768 159.147 40.9785 158.797 41.1722C158.623 41.2687 158.478 41.4107 158.379 41.5831C158.28 41.7555 158.229 41.9516 158.233 42.1505V64.7231C158.23 64.9223 158.28 65.1188 158.377 65.2926C158.475 65.4665 158.616 65.6116 158.788 65.7133C159.137 65.9201 159.535 66.0293 159.941 66.0293C160.346 66.0293 160.744 65.9201 161.093 65.7133C161.265 65.6113 161.406 65.4662 161.504 65.2925C161.602 65.1187 161.653 64.9224 161.651 64.7231V57.4067L163.816 54.6835L170.942 65.3912C171.078 65.6111 171.269 65.7919 171.496 65.9158C171.723 66.0398 171.978 66.1026 172.236 66.0981C172.722 66.0933 173.189 65.9132 173.552 65.591C173.74 65.4525 173.894 65.2732 174.002 65.0665C174.111 64.8598 174.171 64.6312 174.178 64.3979C174.176 64.1562 174.105 63.9202 173.972 63.7179Z" fill="#26B3C1"/>
<path d="M23.7464 70.721C25.7494 70.721 27.3732 70.1134 27.3732 69.3639C27.3732 68.6144 25.7494 68.0068 23.7464 68.0068C21.7433 68.0068 20.1195 68.6144 20.1195 69.3639C20.1195 70.1134 21.7433 70.721 23.7464 70.721Z" fill="#EB5C2E"/>
<path d="M58.7505 66.7898C57.6081 66.7898 56.6358 67.1686 56.1407 67.7353H51.9262C51.4788 66.244 49.8861 64.866 47.4851 63.7505L52.9224 61.7134C53.2594 61.776 53.5995 61.8297 53.9335 61.8625C55.0222 61.9759 55.9528 61.9162 56.5493 61.6895C57.7244 61.2511 57.1458 60.3444 55.228 59.6286C53.9791 59.1666 52.6611 58.9195 51.3297 58.8978C50.7839 58.8818 50.2393 58.9585 49.7191 59.1245C48.9108 59.4228 48.9346 59.9507 49.6564 60.4846L44.2102 62.5217C42.3051 61.97 40.3607 61.5642 38.394 61.3078C37.9198 61.8894 37.4545 62.4382 37.0101 62.9542C43.0976 63.8132 47.4493 66.0144 47.4493 68.5913C47.4493 71.911 40.2343 74.6103 31.367 74.6103C22.4996 74.6103 15.2846 71.9259 15.2846 68.5913C15.2846 65.907 20.0568 63.6044 26.5888 62.8408C26.1712 62.3219 25.7387 61.7711 25.2914 61.1885C22.9634 61.4416 20.662 61.8977 18.4134 62.5515L12.8836 60.4846C13.6054 59.9507 13.6293 59.4287 12.821 59.1245C12.3009 58.958 11.7562 58.8814 11.2104 58.8978C9.87952 58.9167 8.56146 59.1607 7.31208 59.6196C5.39724 60.3354 4.8186 61.2422 5.99078 61.6806C6.79907 61.9789 8.2009 61.9789 9.62063 61.7045L15.1594 63.7923C12.8031 64.9018 11.2432 66.256 10.8018 67.7383H6.39343C5.89832 67.1716 4.92598 66.7928 3.78065 66.7928C2.12231 66.7928 0.821884 67.5892 0.821884 68.6033C0.821884 69.6174 2.12231 70.4108 3.78065 70.4108C4.92598 70.4108 5.89832 70.032 6.39343 69.4653H10.7928C11.2342 70.9566 12.7941 72.3017 15.1504 73.4143L9.6087 75.4872C9.27167 75.4245 8.93463 75.3738 8.60057 75.338C8.26652 75.3023 7.90264 75.2814 7.58648 75.2814C7.04234 75.2645 6.49939 75.3422 5.98183 75.511C5.3853 75.7347 5.22126 76.0837 5.52251 76.4893C5.82375 76.895 6.41729 77.2439 7.31208 77.572C8.2451 77.9136 9.21692 78.138 10.2052 78.2401C11.0795 78.3705 11.9715 78.3115 12.821 78.0672C13.4175 77.8435 13.5845 77.4945 13.2833 77.0888C13.1692 76.9438 13.0346 76.8162 12.8836 76.7101L18.4134 74.6401C21.8503 75.6203 25.3941 76.1772 28.966 76.2985V77.915C27.4538 78.1 26.4456 78.4638 26.4456 78.8904C26.4456 79.5137 28.5663 79.9999 31.2745 79.9999C33.9827 79.9999 36.1034 79.5137 36.1034 78.8904C36.1034 78.4638 35.0952 78.1 33.5831 77.915V76.3044C37.1818 76.1956 40.7537 75.6467 44.2191 74.6699L49.6684 76.7101C49.5174 76.8162 49.3827 76.9438 49.2687 77.0888C48.9704 77.4945 49.1315 77.8435 49.728 78.0672C50.9032 78.5086 53.3221 78.2879 55.2369 77.572C56.1138 77.2439 56.7461 76.8592 57.0265 76.4893C57.3069 76.1195 57.1637 75.7347 56.5642 75.511C56.0466 75.3422 55.5037 75.2645 54.9595 75.2814C54.6434 75.2814 54.3034 75.3023 53.9484 75.338C53.5935 75.3738 53.2744 75.4245 52.9373 75.4872L47.5 73.453C49.901 72.3345 51.4937 70.9655 51.9411 69.4653H56.1556C56.6507 70.032 57.623 70.4108 58.7654 70.4108C60.4267 70.4108 61.7271 69.6144 61.7271 68.6033C61.7271 67.5922 60.4118 66.7898 58.7505 66.7898Z" fill="#EB5C2E"/>
<path d="M35.5844 72.6418C39.0058 72.6418 41.7793 71.6043 41.7793 70.3243C41.7793 69.0444 39.0058 68.0068 35.5844 68.0068C32.1631 68.0068 29.3895 69.0444 29.3895 70.3243C29.3895 71.6043 32.1631 72.6418 35.5844 72.6418Z" fill="#EB5C2E"/>
<path d="M31.707 69.6354C31.0269 69.6354 30.2157 69.4147 27.761 66.7452C25.9172 64.6909 24.1848 62.5394 22.5712 60.2998C19.8153 56.5118 14.6702 48.8554 11.1656 40.1193C6.91539 29.5161 7.58648 18.0479 12.9135 10.1648C17.3486 3.60301 24.6471 0 33.4637 0C42.173 0 49.2448 3.53143 53.3758 9.94109C58.4701 17.848 58.6073 29.4385 53.7277 40.1849C49.7698 48.9121 44.2221 56.5595 41.2693 60.3415C39.5442 62.5834 37.7044 64.7348 35.7574 66.787C33.1834 69.4296 32.4019 69.6354 31.707 69.6354ZM33.4637 3.28984C25.6582 3.28984 19.4901 6.30527 15.6306 12.011C10.9061 18.9963 10.3633 29.3103 14.2109 38.9054C19.4036 51.8559 28.9988 63.7536 31.7249 66.1069C34.5673 63.7865 44.8126 51.9037 50.7421 38.8398C55.1623 29.0955 55.1146 18.707 50.6168 11.7247C47.0615 6.20685 41.1261 3.28984 33.4637 3.28984Z" fill="#2DB8C5"/>
<path d="M35.1101 13.6933C35.6386 13.6933 36.1453 13.9032 36.519 14.2769C36.8926 14.6505 37.1025 15.1573 37.1025 15.6857V23.2109H44.6277C44.889 23.2109 45.1477 23.2623 45.389 23.3623C45.6304 23.4623 45.8497 23.6088 46.0344 23.7936C46.2192 23.9783 46.3657 24.1976 46.4657 24.439C46.5657 24.6803 46.6171 24.939 46.6171 25.2003V29.7399C46.6171 30.2678 46.4076 30.7741 46.0346 31.1476C45.6616 31.5212 45.1556 31.7315 44.6277 31.7322H37.1025V39.2574C37.1018 39.7853 36.8915 40.2913 36.5179 40.6643C36.1444 41.0373 35.638 41.2468 35.1101 41.2468H30.5706C30.043 41.2468 29.5369 41.0372 29.1639 40.6641C28.7908 40.291 28.5812 39.785 28.5812 39.2574V31.7322H21.056C20.5276 31.7322 20.0208 31.5223 19.6472 31.1487C19.2735 30.775 19.0636 30.2683 19.0636 29.7399V25.1943C19.0636 24.9328 19.1152 24.6739 19.2153 24.4323C19.3155 24.1908 19.4623 23.9713 19.6474 23.7865C19.8324 23.6018 20.0521 23.4553 20.2938 23.3555C20.5355 23.2557 20.7945 23.2045 21.056 23.2049H28.5812V15.6857C28.5808 15.4242 28.632 15.1652 28.7318 14.9235C28.8316 14.6818 28.978 14.4621 29.1628 14.2771C29.3476 14.092 29.567 13.9452 29.8086 13.845C30.0501 13.7449 30.3091 13.6933 30.5706 13.6933H35.1101ZM35.1101 10.7107H30.5706C29.2519 10.7123 27.9877 11.237 27.0555 12.1698C26.1233 13.1025 25.5993 14.367 25.5986 15.6857V20.2283H21.056C19.7368 20.2267 18.4709 20.7488 17.5364 21.6799C16.6019 22.6111 16.0752 23.8751 16.072 25.1943V29.7339C16.0736 31.0529 16.5983 32.3174 17.5309 33.25C18.4636 34.1827 19.7281 34.7073 21.0471 34.7089H25.5896V39.2514C25.5912 40.5696 26.1155 41.8334 27.0476 42.7655C27.9797 43.6976 29.2435 44.2219 30.5616 44.2235H35.1012C36.4199 44.2227 37.6844 43.6987 38.6171 42.7665C39.5499 41.8343 40.0746 40.5701 40.0762 39.2514V34.7149H44.6188C45.9375 34.7133 47.2016 34.1885 48.1338 33.2558C49.066 32.3231 49.59 31.0585 49.5908 29.7399V25.1943C49.5892 23.8761 49.0649 22.6124 48.1328 21.6803C47.2007 20.7482 45.9369 20.2239 44.6188 20.2223H40.0852V15.6857C40.0836 14.3667 39.5589 13.1022 38.6263 12.1696C37.6936 11.2369 36.4291 10.7123 35.1101 10.7107Z" fill="#2DB8C5"/>
</svg>